<svg xmlns="http://www.w3.org/2000/svg" viewBox="0 0 392.31 825.46"><defs><style>.cls-1,.cls-3{fill:#303528;}.cls-2{fill:#68735b;stroke:#303528;}.cls-2,.cls-3{stroke-miterlimit:10;}.cls-3{stroke:#68735b;}</style></defs><g id="Layer_2" data-name="Layer 2"><g id="Layer_8" data-name="Layer 8"><rect class="cls-1" x="391.81" y="261.5" height="45" transform="translate(783.61 568) rotate(180)"/><rect class="cls-1" x="391.81" y="490.5" height="45" transform="translate(783.61 1026) rotate(180)"/><rect class="cls-1" x="391.81" y="757.5" height="45" transform="translate(783.61 1560) rotate(180)"/><rect class="cls-1" x="5.81" y="242.5" height="45" transform="translate(11.61 530) rotate(180)"/><rect class="cls-1" x="5.81" y="471.5" height="45" transform="translate(11.61 988) rotate(180)"/><rect class="cls-1" x="5.81" y="738.5" height="45" transform="translate(11.61 1522) rotate(180)"/><rect class="cls-2" x="227.53" y="231.5" width="6.89" height="593.46"/><path class="cls-2" d="M376.87,231.5H198.81V825h193V231.5Zm-10.34,9.32v24.86H347.58V240.82ZM286.12,532.89v115h-51.7v-115Zm-51.7-9.32V404h51.7V523.57ZM293,532.89h47.67v115H293Zm0-9.32V404h47.67V523.57Zm0-128.94V275h47.67V394.63Zm-6.89,0h-51.7V275h51.7Zm-58.59,0H211.44V275h16.09Zm0,9.32V523.57H211.44V404Zm0,128.94v115H211.44v-115Zm0,124.29v91.66H211.44V657.18Zm6.89,0h51.7v91.66h-51.7Zm58.59,0h47.67v91.66H293Zm54.57,0h18.95v91.66H347.58Zm0-9.32v-115h18.95v115Zm0-124.29V404h18.95V523.57Zm0-128.94V275h18.95V394.63Zm-6.9-153.81v24.86H293V240.82Zm-54.56,0v24.86h-51.7V240.82Zm-58.59,0v24.86H211.44V240.82Zm-16.09,564V758.16h16.09v46.61Zm23,0V758.16h51.7v46.61Zm58.59,0V758.16h47.67v46.61Zm54.57,0V758.16h18.95v46.61Z"/><path class="cls-2" d="M198.81,522.79V231.5H5.81V825h193V609.79h4v-87Zm-28.72-282h16.08v24.86H170.09Zm0,34.18h16.08V394.63H170.09Zm0,129h16.08V522.79H170.09Zm0,205.84h16.08v38.07H170.09Zm16.08,47.39v91.66H170.09V657.18ZM111.5,240.82h51.69v24.86H111.5Zm0,34.18h51.69V394.63H111.5Zm0,129h51.69V523.57H111.5Zm0,128.94h51.69v115H111.5Zm51.69,124.29v91.66H111.5V657.18ZM56.93,240.82H104.6v24.86H56.93Zm0,34.18H104.6V394.63H56.93Zm0,129H104.6V523.57H56.93Zm0,128.94H104.6v115H56.93ZM104.6,657.18v91.66H56.93V657.18ZM31.08,240.82H50v24.86h-19Zm0,34.18H50V394.63h-19Zm0,129H50V523.57h-19Zm0,128.94H50v115h-19ZM50,657.18v91.66h-19V657.18Zm-19,147.59V758.16H50v46.61Zm25.85,0V758.16H104.6v46.61Zm54.57,0V758.16h51.69v46.61Zm58.59,0V758.16h16.08v46.61Z"/><ellipse class="cls-3" cx="193.41" cy="556.2" rx="5.17" ry="6.99"/><path class="cls-2" d="M194.25,574.84l-.48-1.74a1.68,1.68,0,0,0,.44-1.24c0-.77-.36-1.4-.8-1.4s-.79.63-.79,1.4a1.68,1.68,0,0,0,.44,1.24l-.48,1.74Z"/><path class="cls-2" d="M391.8,211.5C391.8,95,304.26.5,196.28.5S.77,95,.77,211.5c0,0-2.15,1.5,5.63,0s373.65-2.5,379.77,0S391.8,211.5,391.8,211.5ZM271.94,196.28c0-.1,0-.2,0-.31-16-.17-41-.24-66.91-.22l48.33-50.37A79.17,79.17,0,0,1,271.93,196c8.25.09,14.09.21,16.41.37Zm-151.47.19-18,.1.59-.11c.7-.13,7.23-.25,17.47-.35A79.11,79.11,0,0,1,139,145.44l48.3,50.33c-25.9.06-50.87.18-66.83.34C120.48,196.23,120.47,196.35,120.47,196.47ZM191.35,183l-44.11-46a74.11,74.11,0,0,1,44.11-18.36Zm11.52-64.19A74.19,74.19,0,0,1,245.12,137l-42.25,44ZM191.35,97.63A94.05,94.05,0,0,0,132.9,122.1L78.11,65c29.75-29.6,69.45-48.15,113.24-49.44ZM259.47,122a94.15,94.15,0,0,0-56.6-24.3V15.65C245.94,17.36,285,35.75,314.31,64.9ZM23.9,197.54c0-47.89,17.52-91.45,46.15-123.95l54.63,56.92a100.31,100.31,0,0,0-24.43,66,.44.44,0,0,0-.11.12c-40.22.24-69.27.58-71.28,1C22,198.84,23.9,197.54,23.9,197.54Zm103.76-1.1c10.18-.18,34.35-.32,59.93-.38l.08.09.09-.09,16.77,0,.1.11.11-.11c21.69,0,42.38.05,54.39.22C217.16,196.18,169,196.26,127.66,196.44Zm236,1.1c-1.6-.64-30.87-1-71.5-1.19a100.29,100.29,0,0,0-24.48-65.91l54.68-57c28.69,32.52,46.26,76.13,46.26,124.08C368.64,197.54,369.07,199.7,363.68,197.54Z"/></g></g></svg>