<svg xmlns="http://www.w3.org/2000/svg" viewBox="0 0 434 877.69"><defs><style>.cls-1{isolation:isolate;}.cls-2{fill:#303528;}.cls-3,.cls-5{fill:#68735b;}.cls-3{stroke:#303528;stroke-miterlimit:10;}.cls-4{opacity:0.11;mix-blend-mode:difference;}.cls-5{opacity:0.81;mix-blend-mode:color-dodge;}</style></defs><g class="cls-1"><g id="Layer_2" data-name="Layer 2"><g id="Layer_8" data-name="Layer 8"><rect class="cls-2" x="433.18" y="261.5" height="45" transform="translate(866.35 568) rotate(180)"/><rect class="cls-2" x="433.18" y="490.5" height="45" transform="translate(866.35 1026) rotate(180)"/><rect class="cls-2" x="433.18" y="757.5" height="45" transform="translate(866.35 1560) rotate(180)"/><rect class="cls-2" x="47.18" y="242.5" height="45" transform="translate(94.35 530) rotate(180)"/><rect class="cls-2" x="47.18" y="471.5" height="45" transform="translate(94.35 988) rotate(180)"/><rect class="cls-2" x="47.18" y="738.5" height="45" transform="translate(94.35 1522) rotate(180)"/><path class="cls-3" d="M433.17,211.5C433.17,95,345.63.5,237.65.5S42.14,95,42.14,211.5c0,0-2.15,1.5,5.63,0s373.65-2.5,379.77,0S433.17,211.5,433.17,211.5ZM313.3,196.28V196c-16-.17-41-.24-66.92-.22l48.34-50.37A79.17,79.17,0,0,1,313.3,196c8.25.09,14.09.21,16.41.37Zm-151.46.19-18.05.1.59-.11c.7-.13,7.23-.25,17.47-.35a79.15,79.15,0,0,1,18.52-50.67l48.31,50.33c-25.9.06-50.87.18-66.83.34C161.84,196.23,161.84,196.35,161.84,196.47ZM232.72,183,188.6,137a74.14,74.14,0,0,1,44.12-18.36Zm11.52-64.19A74.19,74.19,0,0,1,286.49,137l-42.25,44ZM232.72,97.63a94.05,94.05,0,0,0-58.45,24.47L119.48,65c29.75-29.6,69.45-48.15,113.24-49.44ZM300.84,122a94.15,94.15,0,0,0-56.6-24.3V15.65c43.07,1.71,82.09,20.1,111.44,49.25ZM65.27,197.54c0-47.89,17.52-91.45,46.15-123.95l54.63,56.92a100.31,100.31,0,0,0-24.43,66,.62.62,0,0,0-.12.12c-40.22.24-69.26.58-71.27,1C63.38,198.84,65.27,197.54,65.27,197.54ZM169,196.44c10.17-.18,34.35-.32,59.93-.38l.08.09.09-.09,16.77,0,.1.11.11-.11c21.69,0,42.38.05,54.39.22C258.53,196.18,210.41,196.26,169,196.44Zm236,1.1c-1.6-.64-30.87-1-71.5-1.19a100.35,100.35,0,0,0-24.48-65.91l54.68-57C392.44,106,410,149.59,410,197.54,410,197.54,410.44,199.7,405.05,197.54Z"/><rect class="cls-2" x="433.5" y="261.73" height="45" transform="translate(867 568.46) rotate(180)"/><rect class="cls-2" x="433.5" y="490.73" height="45" transform="translate(867 1026.46) rotate(180)"/><rect class="cls-2" x="433.5" y="757.73" height="45" transform="translate(867 1560.46) rotate(180)"/><rect class="cls-2" x="47.5" y="242.73" height="45" transform="translate(95 530.46) rotate(180)"/><rect class="cls-2" x="47.5" y="471.73" height="45" transform="translate(95 988.46) rotate(180)"/><rect class="cls-2" x="47.5" y="738.73" height="45" transform="translate(95 1522.46) rotate(180)"/><rect class="cls-3" x="269.22" y="231.73" width="6.89" height="593.46"/><path class="cls-3" d="M418.57,231.73H240.5V825.2h193V231.73Zm-10.34,9.32v24.86h-19V241.05ZM327.81,533.13v115h-51.7v-115Zm-51.7-9.33V404.18h51.7V523.8Zm58.59,9.33h47.68v115H334.7Zm0-9.33V404.18h47.68V523.8Zm0-128.94V275.23h47.68V394.86Zm-6.89,0h-51.7V275.23h51.7Zm-58.59,0H253.14V275.23h16.08Zm0,9.32V523.8H253.14V404.18Zm0,129v115H253.14v-115Zm0,124.28v91.66H253.14V657.41Zm6.89,0h51.7v91.66h-51.7Zm58.59,0h47.68v91.66H334.7Zm54.57,0h19v91.66h-19Zm0-9.32v-115h19v115Zm0-124.29V404.18h19V523.8Zm0-128.94V275.23h19V394.86Zm-6.89-153.81v24.86H334.7V241.05Zm-54.57,0v24.86h-51.7V241.05Zm-58.59,0v24.86H253.14V241.05ZM253.14,805V758.39h16.08V805Zm23,0V758.39h51.7V805Zm58.59,0V758.39h47.68V805Zm54.57,0V758.39h19V805Z"/><path class="cls-3" d="M59.31,240.41l.14-16.83L28,185.23,27.83,205,32,209.72v44.21l-5-2V183.23H14V866l-.28,10.13.28-.38v.48H27v-.47l15.83-25.53H43V850l15.34-24.74-.05-20.68L58,805V757.54l.34-.32-.05-7.68-.29.25V658.41l.34-.19-.05-8.68-.29.15V533.36l.34-.14-.05-8.68-.29.08V405.24l.34,0-.05-10.68H58V274.15l.34.07-.05-9.68-.29-.11V238.94ZM32,268.4V393.63l-5-.17V267.29ZM27,842.45V786.93l5-4.74v53Zm0-67v-99l5-2.9v97.82Zm0-110.59V546.54l5-2.13v118Zm0-131.74V407l5-.28v125ZM48,812l-5,7.26V771.76L48,767Zm0-53.92-5,4.13V667.1l5-2.9Zm0-103.48L43,657V539.74l5-2.13Zm0-127.22-5,1.37V406.08l5-.28Zm0-133.16L43,394V270.83l5,1.1Zm0-133.8-5-2V222.08l5,5.62Z"/><g class="cls-4"><polyline class="cls-3" points="13.72 876.13 15.13 861.12 50.66 809.56 50.3 828.57 13.72 876.13"/><rect class="cls-3" x="49" y="223.23" width="10" height="602"/><rect class="cls-3" x="33" y="206.23" width="11" height="644"/><polygon class="cls-3" points="60.31 240.41 28.83 205.03 29 185.23 60.45 223.57 60.31 240.41"/><polyline class="cls-3" points="26.83 876.03 27.78 848.41 59.29 804.54 59.34 825.22 26.83 876.03"/><polygon class="cls-3" points="59.34 757.22 26.83 788.03 26.78 776.41 59.29 749.54 59.34 757.22"/><polygon class="cls-3" points="59.34 658.22 26.83 677.03 26.78 665.41 59.29 649.54 59.34 658.22"/><polygon class="cls-3" points="59.34 533.22 26.83 547.03 26.78 533.41 59.29 524.54 59.34 533.22"/><polygon class="cls-3" points="59.34 405.22 26.83 407.03 26.78 393.42 59.29 394.55 59.34 405.22"/><polygon class="cls-3" points="59.34 274.22 26.83 267.03 26.78 251.41 59.29 264.55 59.34 274.22"/><polyline class="cls-3" points="14 876.23 15 183.23 28 183.23 27 876.23"/></g><path class="cls-2" d="M14.4,569.66l.15,9.57a5.34,5.34,0,0,1-.15-9.57Z"/><path class="cls-2" d="M10.5,561.36A11.35,11.35,0,0,1,8.59,561c-.7,3.46-2.27,5.87-4.09,5.87-2.49,0-4.5-4.48-4.5-10s2-10,4.5-10c2,0,3.67,2.86,4.26,6.83a10.54,10.54,0,0,1,1.74-.28v-.05h4v8h-4Z"/><path class="cls-5" d="M2.73,564.57c-1.38,0-2.5-3.58-2.5-8s1.12-8,2.5-8"/></g></g></g></svg>