<svg xmlns="http://www.w3.org/2000/svg" viewBox="0 0 67.79 142.56"><defs><style>.cls-1,.cls-3{fill:#303528;}.cls-2{fill:#68735b;stroke:#303528;}.cls-2,.cls-3{stroke-miterlimit:10;stroke-width:0.25px;}.cls-3{stroke:#68735b;}</style></defs><g id="Layer_2" data-name="Layer 2"><g id="Layer_8" data-name="Layer 8"><rect class="cls-1" x="67.67" y="45.18" height="7.77" transform="translate(135.34 98.12) rotate(180)"/><rect class="cls-1" x="67.67" y="84.7" height="7.77" transform="translate(135.34 177.18) rotate(180)"/><rect class="cls-1" x="67.67" y="130.79" height="7.77" transform="translate(135.34 269.35) rotate(180)"/><rect class="cls-1" x="1.04" y="41.9" height="7.77" transform="translate(2.08 91.56) rotate(180)"/><rect class="cls-1" x="1.04" y="81.42" height="7.77" transform="translate(2.08 170.62) rotate(180)"/><rect class="cls-1" x="1.04" y="127.51" height="7.77" transform="translate(2.08 262.79) rotate(180)"/><rect class="cls-2" x="39.31" y="40" width="1.19" height="102.44"/><path class="cls-2" d="M65.09,40H34.35V142.44H67.67V40Zm-1.78,1.61V45.9H60V41.61ZM49.43,92v19.85H40.5V92ZM40.5,90.41V69.76h8.93V90.41ZM50.62,92h8.22v19.85H50.62Zm0-1.61V69.76h8.22V90.41Zm0-22.25V47.51h8.22V68.16Zm-1.19,0H40.5V47.51h8.93Zm-10.12,0H36.54V47.51h2.77Zm0,1.6V90.41H36.54V69.76Zm0,22.26v19.85H36.54V92Zm0,21.45V129.3H36.54V113.47Zm1.19,0h8.93V129.3H40.5Zm10.12,0h8.22V129.3H50.62Zm9.41,0h3.28V129.3H60Zm0-1.6V92h3.28v19.85Zm0-21.46V69.76h3.28V90.41Zm0-22.25V47.51h3.28V68.16ZM58.84,41.61V45.9H50.62V41.61Zm-9.41,0V45.9H40.5V41.61Zm-10.12,0V45.9H36.54V41.61ZM36.54,139v-8h2.77v8Zm4,0v-8h8.93v8Zm10.12,0v-8h8.22v8ZM60,139v-8h3.28v8Z"/><path class="cls-2" d="M34.35,90.28V40H1V142.44H34.35V105.3h.7v-15Zm-5-48.67h2.77V45.9H29.4Zm0,5.9h2.77V68.16H29.4Zm0,22.25h2.77V90.28H29.4Zm0,35.54h2.77v6.57H29.4Zm2.77,8.17V129.3H29.4V113.47ZM19.28,41.61h8.93V45.9H19.28Zm0,5.9h8.93V68.16H19.28Zm0,22.25h8.93V90.41H19.28Zm0,22.26h8.93v19.85H19.28Zm8.93,21.45V129.3H19.28V113.47ZM9.87,41.61h8.22V45.9H9.87Zm0,5.9h8.22V68.16H9.87Zm0,22.25h8.22V90.41H9.87ZM9.87,92h8.22v19.85H9.87Zm8.22,21.45V129.3H9.87V113.47ZM5.4,41.61H8.68V45.9H5.4Zm0,5.9H8.68V68.16H5.4Zm0,22.25H8.68V90.41H5.4ZM5.4,92H8.68v19.85H5.4Zm3.28,21.45V129.3H5.4V113.47ZM5.4,139v-8H8.68v8Zm4.47,0v-8h8.22v8Zm9.41,0v-8h8.93v8Zm10.12,0v-8h2.77v8Z"/><ellipse class="cls-3" cx="33.42" cy="96.04" rx="0.89" ry="1.21"/><path class="cls-2" d="M33.57,99.26l-.08-.3a.31.31,0,0,0,.07-.21c0-.14-.06-.24-.14-.24s-.13.1-.13.24a.31.31,0,0,0,.07.21l-.08.3Z"/><path class="cls-2" d="M67.67,36.55C67.67,16.43,52.56.13,33.92.13S.17,16.43.17,36.55c0,0-.37.25,1,0s64.5-.44,65.56,0S67.67,36.55,67.67,36.55ZM47,33.92v-.05c-2.76,0-7.08,0-11.55,0l8.34-8.7A13.69,13.69,0,0,1,47,33.87c1.42,0,2.43,0,2.83.06ZM20.83,34l-3.11,0,.1,0c.12,0,1.25,0,3-.06A13.71,13.71,0,0,1,24,25.14l8.34,8.69c-4.47,0-8.78,0-11.54.06Zm12.24-2.32-7.62-7.94a12.82,12.82,0,0,1,7.62-3.17Zm2-11.08a12.8,12.8,0,0,1,7.29,3.14l-7.29,7.59Zm-2-3.66A16.22,16.22,0,0,0,23,21.12l-9.46-9.86A28.85,28.85,0,0,1,33.07,2.73ZM44.83,21.1a16.25,16.25,0,0,0-9.77-4.19V2.74a28.87,28.87,0,0,1,19.23,8.5Zm-40.67,13a32.3,32.3,0,0,1,8-21.4l9.43,9.83A17.32,17.32,0,0,0,17.34,34l0,0c-6.94,0-11.95.1-12.3.17C3.84,34.36,4.16,34.14,4.16,34.14ZM22.07,34c1.76,0,5.93-.06,10.35-.07v0l0,0h2.89l0,0,0,0c3.74,0,7.31,0,9.39,0C37.52,33.9,29.22,33.92,22.07,34Zm40.74.19c-.27-.11-5.32-.18-12.34-.21a17.32,17.32,0,0,0-4.22-11.38l9.43-9.83a32.25,32.25,0,0,1,8,21.42S63.74,34.51,62.81,34.14Z"/></g></g></svg>